<svg width="110" height="106" viewBox="0 0 110 106" fill="none" xmlns="http://www.w3.org/2000/svg">
<g clip-path="url(#clip0_2014_550)">
<path d="M109.018 0V106" stroke="black"/>
<path d="M101.301 0V106" stroke="black"/>
<path d="M93.5842 0V106" stroke="black"/>
<path d="M85.8674 0V106" stroke="black"/>
<path d="M78.1504 0V106" stroke="black"/>
<path d="M70.4336 0V106" stroke="black"/>
<path d="M62.7168 0V106" stroke="black"/>
<path d="M55 0V106" stroke="black"/>
<path d="M47.2831 0V106" stroke="black"/>
<path d="M39.5664 0V106" stroke="black"/>
<path d="M31.8494 0V106" stroke="black"/>
<path d="M24.1326 0V106" stroke="black"/>
<path d="M16.4159 0V106" stroke="black"/>
<path d="M8.69897 0V106" stroke="black"/>
<path d="M0.982178 0V106" stroke="black"/>
<path d="M54.9998 79.427C69.7525 79.427 81.712 67.6606 81.712 53.146C81.712 38.6314 69.7525 26.865 54.9998 26.865C40.2471 26.865 28.2877 38.6314 28.2877 53.146C28.2877 67.6606 40.2471 79.427 54.9998 79.427Z" fill="black"/>
</g>
<defs>
<clipPath id="clip0_2014_550">
<rect width="110" height="106" fill="white"/>
</clipPath>
</defs>
</svg>
