<?xml version="1.0" ?><!DOCTYPE svg  PUBLIC '-//W3C//DTD SVG 1.1//EN'  'http://www.w3.org/Graphics/SVG/1.1/DTD/svg11.dtd'><svg height="8.4666mm" style="shape-rendering:geometricPrecision; text-rendering:geometricPrecision; image-rendering:optimizeQuality; fill-rule:evenodd; clip-rule:evenodd" version="1.1" viewBox="0 0 846.66 846.66" width="8.4666mm" xml:space="preserve" xmlns="http://www.w3.org/2000/svg" xmlns:xlink="http://www.w3.org/1999/xlink"><defs><style type="text/css">
   <![CDATA[
    .fil0 {fill:black;fill-rule:nonzero}
   ]]>
  </style></defs><g id="Layer_x0020_1"><path class="fil0" d="M91.82 580.72l0 -437.87c0,-72.81 59.49,-132.3 132.3,-132.3l462.04 0c72.81,0 132.3,59.49 132.3,132.3l0 485.13c0,72.81 -59.5,132.3 -132.3,132.3l-402.56 0 0 55.19c0,11.4 -9.25,20.65 -20.65,20.65l-214.1 0c-11.4,0 -20.65,-9.25 -20.65,-20.65l0 -214.1c0,-11.4 9.25,-20.65 20.65,-20.65l42.97 0zm-5.74 141.11c-14.51,-22.78 20.16,-44.88 34.68,-22.1l15.05 23.57 55.79 -78.51c15.68,-22.03 49.23,1.83 33.55,23.87l-73.49 103.37c-8.34,11.74 -26.19,11.52 -34.09,-0.87l-31.49 -49.33zm691.09 -161.74l-396.67 0c-27.16,0 -27.16,-41.29 0,-41.29l396.67 0 0 -375.95c0,-50.01 -41,-91.01 -91.01,-91.01l-462.04 0c-50.01,0 -91.01,41 -91.01,91.01l0 437.87 129.84 0c11.4,0 20.65,9.25 20.65,20.65l0 117.62 402.56 0c50.01,0 91.01,-41 91.01,-91.01l0 -67.89zm-538.05 -137.14c0,27.15 -41.29,27.15 -41.29,0 0,-59.49 33.15,-113.75 85.69,-141.18 -17.87,-18.81 -27.97,-43.76 -27.97,-69.78 0,-56.03 45.43,-101.46 101.46,-101.46 56.03,0 101.46,45.43 101.46,101.46 0,26.02 -10.1,50.97 -27.97,69.78 52.54,27.43 85.69,81.69 85.69,141.18 0,27.15 -41.29,27.15 -41.29,0 0,-53.61 -36.08,-100.54 -87.95,-114.09 -9.59,2.98 -19.91,4.59 -29.94,4.59 -10.03,0 -20.36,-1.61 -29.94,-4.59 -51.87,13.55 -87.95,60.48 -87.95,114.09zm117.89 -150.79c33.61,0 60.17,-26.82 60.17,-60.17 0,-33.23 -26.94,-60.17 -60.17,-60.17 -33.23,0 -60.17,26.94 -60.17,60.17 0,34.2 27.34,60.17 60.17,60.17zm208.85 172.48c-27.15,0 -27.15,-41.29 0,-41.29l125.95 0c27.15,0 27.15,41.29 0,41.29l-125.95 0zm0 -121.74c-27.15,0 -27.15,-41.29 0,-41.29l125.95 0c27.15,0 27.15,41.29 0,41.29l-125.95 0zm0 -121.75c-27.15,0 -27.15,-41.29 0,-41.29l125.95 0c27.15,0 27.15,41.29 0,41.29l-125.95 0zm-323.55 420.86l-172.82 0 0 172.81 172.82 0 0 -172.81z"/></g></svg>